PathFileType	4	(X/Y/Z)	 New Session 101.trc
DataRate	CameraRate	NumFrames	NumMarkers	Units	OrigDataRate	OrigDataStartFrame	OrigNumFrames
100	100	12	14	m	100	85	337
Frame#	Time	C7			T8			IJ			PX			AA			AC			AI			TS			SC			GH			LE			ME			US			RS			
		X1	Y1	Z1	X2	Y2	Z2	X3	Y3	Z3	X4	Y4	Z4	X5	Y5	Z5	X6	Y6	Z6	X7	Y7	Z7	X8	Y8	Z8	X9	Y9	Z9	X10	Y10	Z10	X11	Y11	Z11	X12	Y12	Z12	X13	Y13	Z13	X14	Y14	Z14	
85	0.8500	0.021634	0.108281	0.149199	0.030386	-0.106135	0.229858	0.000104	-0.000295	-0.007392	0.001485	-0.142820	-0.070926	0.221046	0.012101	0.133348	0.168795	0.053850	0.063633	0.108013	0.032234	0.193273	0.113072	-0.085697	0.226149	0.025290	0.008186	-0.003609	0.231615	0.026109	0.093588	0.321546	-0.247303	0.023645	0.238754	-0.285647	-0.008395	0.409695	-0.496216	-0.066374	0.444045	-0.449771	-0.121354	
86	0.8600	0.021626	0.108282	0.149225	0.030372	-0.106141	0.229877	0.000094	-0.000282	-0.007395	0.001462	-0.142794	-0.070945	0.221032	0.012111	0.133351	0.168779	0.053853	0.063644	0.108002	0.032238	0.193277	0.113064	-0.085704	0.226148	0.025277	0.008194	-0.003605	0.231604	0.026119	0.093593	0.321539	-0.247277	0.023620	0.238740	-0.285585	-0.008489	0.409769	-0.496178	-0.066366	0.443993	-0.449760	-0.121426	
87	0.8700	0.021615	0.108283	0.149251	0.030358	-0.106151	0.229893	0.000080	-0.000269	-0.007393	0.001440	-0.142770	-0.070966	0.221020	0.012121	0.133354	0.168762	0.053859	0.063657	0.107985	0.032231	0.193284	0.113058	-0.085710	0.226149	0.025264	0.008204	-0.003601	0.231594	0.026133	0.093601	0.321536	-0.247252	0.023595	0.238730	-0.285519	-0.008601	0.409861	-0.496138	-0.066346	0.443985	-0.449727	-0.121486	
88	0.8800	0.021603	0.108279	0.149274	0.030349	-0.106159	0.229903	0.000063	-0.000255	-0.007387	0.001419	-0.142749	-0.070986	0.221007	0.012128	0.133359	0.168745	0.053867	0.063672	0.107966	0.032215	0.193297	0.113055	-0.085715	0.226154	0.025253	0.008214	-0.003597	0.231582	0.026148	0.093610	0.321539	-0.247226	0.023571	0.238726	-0.285450	-0.008731	0.409962	-0.496097	-0.066324	0.444001	-0.449680	-0.121535	
89	0.8900	0.021588	0.108271	0.149294	0.030348	-0.106163	0.229905	0.000045	-0.000240	-0.007377	0.001401	-0.142729	-0.071003	0.220993	0.012132	0.133368	0.168728	0.053879	0.063689	0.107951	0.032200	0.193314	0.113054	-0.085719	0.226161	0.025243	0.008226	-0.003592	0.231569	0.026163	0.093617	0.321543	-0.247199	0.023549	0.238729	-0.285378	-0.008876	0.410058	-0.496055	-0.066311	0.444022	-0.449629	-0.121574	
90	0.9000	0.021572	0.108261	0.149312	0.030351	-0.106166	0.229908	0.000031	-0.000226	-0.007363	0.001385	-0.142711	-0.071016	0.220977	0.012135	0.133379	0.168713	0.053894	0.063706	0.107942	0.032192	0.193335	0.113056	-0.085722	0.226170	0.025235	0.008240	-0.003584	0.231556	0.026179	0.093624	0.321544	-0.247171	0.023528	0.238738	-0.285305	-0.009035	0.410136	-0.496013	-0.066318	0.444039	-0.449577	-0.121609	
91	0.9100	0.021556	0.108250	0.149331	0.030351	-0.106172	0.229916	0.000021	-0.000213	-0.007346	0.001372	-0.142694	-0.071024	0.220963	0.012142	0.133390	0.168698	0.053912	0.063722	0.107933	0.032192	0.193357	0.113059	-0.085726	0.226179	0.025229	0.008256	-0.003572	0.231545	0.026199	0.093633	0.321540	-0.247142	0.023508	0.238756	-0.285230	-0.009202	0.410186	-0.495969	-0.066348	0.444046	-0.449529	-0.121647	
92	0.9200	0.021540	0.108243	0.149355	0.030352	-0.106179	0.229926	0.000017	-0.000202	-0.007329	0.001361	-0.142674	-0.071029	0.220955	0.012156	0.133402	0.168685	0.053930	0.063737	0.107920	0.032199	0.193379	0.113063	-0.085729	0.226190	0.025224	0.008272	-0.003558	0.231539	0.026223	0.093645	0.321534	-0.247114	0.023489	0.238780	-0.285154	-0.009376	0.410201	-0.495926	-0.066403	0.444037	-0.449489	-0.121695	
93	0.9300	0.021523	0.108238	0.149385	0.030355	-0.106182	0.229934	0.000017	-0.000193	-0.007310	0.001350	-0.142650	-0.071034	0.220954	0.012176	0.133411	0.168672	0.053948	0.063751	0.107906	0.032209	0.193396	0.113067	-0.085732	0.226201	0.025219	0.008289	-0.003540	0.231536	0.026249	0.093659	0.321528	-0.247089	0.023471	0.238810	-0.285077	-0.009553	0.410189	-0.495882	-0.066475	0.444017	-0.449458	-0.121754	
94	0.9400	0.021508	0.108236	0.149421	0.030359	-0.106182	0.229940	0.000020	-0.000185	-0.007291	0.001339	-0.142620	-0.071041	0.220954	0.012196	0.133420	0.168659	0.053965	0.063765	0.107898	0.032216	0.193407	0.113070	-0.085734	0.226215	0.025215	0.008305	-0.003519	0.231532	0.026276	0.093674	0.321526	-0.247070	0.023457	0.238844	-0.285000	-0.009728	0.410159	-0.495838	-0.066551	0.444001	-0.449430	-0.121820	
95	0.9500	0.021493	0.108234	0.149462	0.030361	-0.106186	0.229950	0.000025	-0.000178	-0.007272	0.001326	-0.142581	-0.071052	0.220950	0.012213	0.133430	0.168646	0.053980	0.063781	0.107902	0.032214	0.193414	0.113070	-0.085735	0.226231	0.025209	0.008322	-0.003495	0.231523	0.026302	0.093687	0.321529	-0.247051	0.023447	0.238880	-0.284925	-0.009896	0.410125	-0.495795	-0.066621	0.444007	-0.449394	-0.121888	
96	0.9600	0.021480	0.108232	0.149505	0.030356	-0.106194	0.229971	0.000027	-0.000171	-0.007252	0.001309	-0.142536	-0.071066	0.220938	0.012224	0.133442	0.168632	0.053994	0.063798	0.107913	0.032206	0.193424	0.113066	-0.085735	0.226249	0.025201	0.008338	-0.003469	0.231508	0.026323	0.093699	0.321532	-0.247031	0.023437	0.238916	-0.284852	-0.010052	0.410094	-0.495754	-0.066675	0.444034	-0.449347	-0.121957	
